
<svg xmlns="http://www.w3.org/2000/svg" xmlns:xlink="http://www.w3.org/1999/xlink" width="32" height="32" viewBox="0 0 375 374.999991" preserveAspectRatio="xMidYMid meet" version="1.0">
  <rect width="375" height="375" rx="4" fill="#0E0E0E"/>
  <defs><clipPath id="4f61478dc4"><path d="M 74 105.605469 L 293.589844 105.605469 L 293.589844 239.105469 L 74 239.105469 Z M 74 105.605469 " clip-rule="nonzero"/></clipPath></defs>
  <g clip-path="url(#4f61478dc4)"><path fill="#e2bd4e" d="M 195.707031 105.695312 L 191.945312 105.949219 C 192.210938 129.214844 190.78125 144.089844 187.660156 150.574219 L 187.589844 150.742188 C 184.859375 158.183594 178.742188 164.328125 169.238281 169.167969 L 169.234375 169.167969 C 168.632812 169.304688 168.011719 169.375 167.378906 169.375 C 164.925781 169.375 162.261719 168.355469 159.386719 166.316406 C 158.8125 165.851562 158.316406 165.410156 157.902344 164.984375 L 157.898438 164.984375 C 158.066406 163.457031 157.960938 161.742188 157.578125 159.839844 L 154.464844 158.808594 L 154.460938 158.808594 C 152.136719 160.90625 151.929688 163.304688 153.839844 166.007812 L 153.835938 166.007812 C 152.9375 168.640625 150.183594 169.957031 145.585938 169.957031 C 141.128906 169.957031 134.9375 168.722656 127.011719 166.25 C 107.351562 158.574219 90.894531 149.15625 77.644531 138 L 76.066406 137.59375 C 75.589844 137.6875 75.191406 137.902344 74.875 138.238281 C 74.183594 138.972656 74.09375 139.859375 74.597656 140.898438 C 75.035156 141.800781 76.308594 143.246094 78.417969 145.226562 L 78.449219 145.253906 C 89.578125 155.265625 95.527344 160.863281 96.292969 162.054688 C 96.277344 162.03125 96.261719 162.003906 96.246094 161.964844 L 96.449219 162.304688 L 115.328125 187.324219 C 115.699219 187.8125 116.265625 188.074219 116.835938 188.074219 C 117.234375 188.074219 117.632812 187.949219 117.972656 187.691406 C 118.804688 187.0625 118.972656 185.878906 118.34375 185.046875 L 99.558594 160.15625 L 99.554688 160.15625 C 99.527344 160.105469 99.5 160.058594 99.46875 160.011719 C 98.976562 159.246094 97.085938 157.308594 93.792969 154.191406 C 103.316406 160.007812 113.949219 165.207031 125.691406 169.789062 L 125.816406 169.832031 C 133.863281 172.34375 140.402344 173.601562 145.433594 173.601562 C 151.027344 173.601562 154.761719 172.046875 156.625 168.9375 L 156.628906 168.9375 C 156.765625 169.050781 156.902344 169.164062 157.046875 169.28125 L 157.132812 169.34375 C 160.691406 171.886719 164.101562 173.15625 167.351562 173.15625 C 168.371094 173.15625 169.371094 173.03125 170.355469 172.785156 L 170.746094 172.636719 C 181.203125 167.355469 187.984375 160.527344 191.09375 152.152344 L 191.089844 152.152344 C 193.382812 147.347656 194.828125 138.648438 195.429688 126.046875 L 195.433594 126.046875 C 198.449219 138.722656 202.582031 147.863281 207.832031 153.472656 C 212.902344 159.671875 218.714844 163.738281 225.269531 165.679688 L 225.480469 165.730469 C 226.808594 165.960938 228.015625 166.078125 229.105469 166.078125 C 230.554688 166.078125 231.789062 165.871094 232.816406 165.460938 L 232.820312 165.460938 C 233.792969 167.511719 235.832031 169.070312 238.9375 170.136719 C 240.71875 170.746094 242.871094 171.171875 245.402344 171.410156 L 245.726562 171.414062 C 253.292969 170.8125 260.664062 167.894531 267.847656 162.65625 L 267.957031 162.570312 C 272.71875 158.53125 279.566406 151.136719 288.503906 140.394531 L 288.507812 140.394531 C 281.148438 180.375 278.488281 207.808594 280.53125 222.695312 L 280.527344 222.695312 C 280.316406 223.734375 279.957031 224.375 279.445312 224.617188 L 279.441406 224.617188 C 277.359375 225.25 274.089844 225.566406 269.628906 225.566406 C 265.894531 225.566406 261.332031 225.347656 255.933594 224.902344 L 255.929688 224.902344 C 248.058594 222.910156 213.1875 218.703125 151.320312 212.273438 L 151.199219 212.265625 C 149.09375 212.183594 147.066406 212.144531 145.121094 212.144531 C 128.398438 212.144531 117.457031 215.078125 112.289062 220.949219 L 111.851562 221.847656 C 110.480469 229.167969 117.152344 234.207031 131.871094 236.964844 C 136.515625 237.835938 142.003906 238.496094 148.332031 238.949219 L 148.445312 238.953125 C 152.972656 239.007812 157.40625 239.035156 161.742188 239.035156 C 198.863281 239.035156 228.871094 237.058594 251.757812 233.101562 C 252.785156 232.921875 253.472656 231.945312 253.296875 230.917969 C 253.136719 230 252.339844 229.351562 251.4375 229.351562 C 251.332031 229.351562 251.222656 229.359375 251.113281 229.378906 C 228.441406 233.300781 198.652344 235.257812 161.757812 235.257812 C 157.449219 235.257812 153.046875 235.234375 148.546875 235.179688 C 142.382812 234.738281 137.058594 234.09375 132.566406 233.253906 C 120.75 231.039062 115.058594 227.636719 115.492188 223.046875 L 115.488281 223.046875 C 120.074219 218.292969 129.882812 215.917969 144.90625 215.917969 C 146.851562 215.917969 148.878906 215.957031 150.996094 216.035156 C 213.066406 222.484375 247.777344 226.671875 255.132812 228.597656 L 255.457031 228.652344 C 260.914062 229.101562 265.585938 229.328125 269.480469 229.328125 C 274.53125 229.328125 278.261719 228.949219 280.679688 228.1875 L 280.832031 228.132812 C 282.710938 227.359375 283.867188 225.660156 284.304688 223.035156 L 284.3125 222.460938 C 282.128906 207.183594 285.214844 177.652344 293.574219 133.859375 L 290.253906 132.316406 C 279.164062 145.96875 270.929688 155.085938 265.546875 159.664062 L 265.542969 159.664062 C 259.011719 164.410156 252.363281 167.066406 245.59375 167.636719 C 243.433594 167.421875 241.625 167.066406 240.160156 166.5625 C 237.539062 165.664062 236.167969 164.207031 236.046875 162.191406 L 236.042969 162.191406 C 236.210938 161.75 236.34375 161.269531 236.433594 160.746094 C 236.527344 160.199219 236.570312 159.613281 236.558594 158.988281 L 232.890625 158.410156 L 232.886719 158.410156 C 232.546875 159.394531 232.328125 160.328125 232.222656 161.207031 L 232.21875 161.207031 C 231.621094 161.925781 230.527344 162.289062 228.933594 162.289062 C 228.15625 162.289062 227.261719 162.199219 226.242188 162.027344 C 220.445312 160.289062 215.265625 156.617188 210.695312 151.015625 L 210.609375 150.914062 C 203.472656 143.3125 198.507812 128.238281 195.707031 105.695312 Z M 195.707031 105.695312 " fill-opacity="1" fill-rule="nonzero"/></g>
</svg>
